<?xml version="1.0" encoding="utf-8"?>
<!-- Generator: Adobe Illustrator 16.0.0, SVG Export Plug-In . SVG Version: 6.00 Build 0)  -->
<!DOCTYPE svg PUBLIC "-//W3C//DTD SVG 1.1//EN" "http://www.w3.org/Graphics/SVG/1.1/DTD/svg11.dtd">
<svg version="1.1" xmlns="http://www.w3.org/2000/svg" xmlns:xlink="http://www.w3.org/1999/xlink" x="0px" y="0px" width="215px"
	 height="162px" viewBox="0 0 215 162" enable-background="new 0 0 215 162" xml:space="preserve">
<g id="Background">
</g>
<g id="Capa_3">
	<g>
		<circle fill="#547CD2" cx="104.431" cy="40.633" r="27.108"/>
		<path fill="#547CD2" d="M75.358,162h76.157l2.502-22.854c0,0,54.877-117.687,52.232-118.348
			c-2.645-0.662-7.934,3.966-22.479,19.175c-14.546,15.204-48.925,50.245-73.387,50.245c-24.464,0-44.298-25.784-60.828-44.295
			C33.028,27.41,17.82,17.494,17.82,17.494c-5.29,5.288,54.876,126.279,54.876,126.279L75.358,162z"/>
	</g>
</g>
<g id="Objects">
	<path fill="#0D1B38" stroke="#FFFFFF" stroke-width="3" stroke-miterlimit="10" d="M122.866,101.872v0.025l-0.042-0.025
		l-32.063,52.032h9.057l6.508-10.596h16.54v10.321h10.205v-51.758H122.866z M110.867,135.917l11.999-19.536v19.536H110.867z"/>
</g>
</svg>
