<?xml version="1.0" encoding="utf-8"?>
<!-- Generator: Adobe Illustrator 16.0.0, SVG Export Plug-In . SVG Version: 6.00 Build 0)  -->
<!DOCTYPE svg PUBLIC "-//W3C//DTD SVG 1.1//EN" "http://www.w3.org/Graphics/SVG/1.1/DTD/svg11.dtd">
<svg version="1.1" xmlns="http://www.w3.org/2000/svg" xmlns:xlink="http://www.w3.org/1999/xlink" x="0px" y="0px" width="608px"
	 height="162px" viewBox="0 0 608 162" enable-background="new 0 0 608 162" xml:space="preserve">
<g id="Background">
</g>
<g id="Capa_3">
	<g>
		<circle fill="#547CD2" cx="143.462" cy="35.579" r="23.376"/>
		<path fill="#547CD2" d="M118.392,140.237h65.672l2.157-19.707c0,0,47.322-101.484,45.041-102.055
			c-2.28-0.57-6.842,3.42-19.385,16.535c-12.543,13.111-42.189,43.328-63.283,43.328c-21.096,0-38.199-22.234-52.453-38.197
			C81.889,24.177,68.774,15.626,68.774,15.626c-4.562,4.561,47.321,108.895,47.321,108.895L118.392,140.237z"/>
	</g>
	<g>
		<circle fill="#154CC1" cx="231.831" cy="51.974" r="19.714"/>
		<path fill="#154CC1" d="M210.688,140.237h55.385l1.819-16.619c0,0,39.909-85.588,37.985-86.068
			c-1.923-0.48-5.77,2.885-16.348,13.945c-10.578,11.057-35.581,36.541-53.37,36.541c-17.791,0-32.216-18.752-44.236-32.215
			c-12.02-13.463-23.08-20.676-23.08-20.676c-3.847,3.846,39.909,91.838,39.909,91.838L210.688,140.237z"/>
	</g>
	<g>
		<circle fill="#547CD2" cx="327.517" cy="35.579" r="23.376"/>
		<path fill="#547CD2" d="M302.446,140.237h65.672l2.157-19.707c0,0,47.322-101.484,45.041-102.055
			c-2.28-0.57-6.842,3.42-19.385,16.535c-12.543,13.111-42.189,43.328-63.283,43.328c-21.096,0-38.199-22.234-52.453-38.197
			c-14.252-15.965-27.366-24.516-27.366-24.516c-4.562,4.561,47.321,108.895,47.321,108.895L302.446,140.237z"/>
	</g>
	<g>
		<circle fill="#154CC1" cx="415.886" cy="51.974" r="19.714"/>
		<path fill="#154CC1" d="M394.742,140.237h55.385l1.819-16.619c0,0,39.909-85.588,37.985-86.068
			c-1.923-0.48-5.77,2.885-16.348,13.945c-10.578,11.057-35.581,36.541-53.37,36.541c-17.791,0-32.216-18.752-44.236-32.215
			c-12.02-13.463-23.08-20.676-23.08-20.676c-3.847,3.846,39.909,91.838,39.909,91.838L394.742,140.237z"/>
	</g>
	<g>
		<circle fill="#547CD2" cx="506.462" cy="35.579" r="23.376"/>
		<path fill="#547CD2" d="M481.392,140.237h65.672l2.157-19.707c0,0,47.322-101.484,45.041-102.055
			c-2.28-0.57-6.842,3.42-19.385,16.535c-12.543,13.111-42.189,43.328-63.283,43.328c-21.096,0-38.199-22.234-52.453-38.197
			c-14.252-15.965-27.366-24.516-27.366-24.516c-4.562,4.561,47.321,108.895,47.321,108.895L481.392,140.237z"/>
	</g>
</g>
<g id="Objects">
	<path fill="#0D1B38" stroke="#FFFFFF" stroke-width="3" stroke-miterlimit="10" d="M93.183,25v0.056L93.092,25L22.65,139.313
		h19.898l14.298-23.278h36.336v22.676h22.42V25H93.183z M66.821,99.796l26.361-42.919v42.919H66.821z"/>
	<g>
		
			<path fill="#0D1B38" stroke="#FFFFFF" stroke-width="3" stroke-linecap="round" stroke-linejoin="round" stroke-miterlimit="10" d="
			M186.871,124.913c-0.24,1.92-1.122,3.762-2.641,5.521c-1.521,1.761-3.463,3.3-5.822,4.62c-2.362,1.32-5.063,2.36-8.104,3.12
			c-3.042,0.759-6.243,1.14-9.604,1.14h-18.008c-3.361,0-6.443-0.381-9.244-1.14c-2.802-0.76-5.222-1.8-7.263-3.12
			c-2.041-1.32-3.562-2.859-4.562-4.62c-1.001-1.759-1.38-3.601-1.14-5.521l1.32-9.479h21.969l-0.96,6.96
			c-0.161,1.361,0.499,2.48,1.981,3.359c1.48,0.882,3.38,1.32,5.703,1.32h5.882c2.401,0,4.421-0.438,6.063-1.32
			c1.639-0.879,2.581-1.998,2.821-3.359l1.44-9.72c0.079-1.278-0.621-2.4-2.101-3.36c-1.481-0.96-3.262-1.439-5.342-1.439h-12.365
			c-3.362,0-6.423-0.379-9.184-1.141c-2.761-0.76-5.123-1.8-7.083-3.119c-1.962-1.32-3.421-2.84-4.382-4.561
			c-0.96-1.719-1.32-3.58-1.081-5.58l0.84-9.48c0.24-1.998,1.141-3.879,2.701-5.64c1.561-1.759,3.542-3.3,5.943-4.62
			c2.401-1.32,5.121-2.358,8.163-3.119c3.041-0.76,6.243-1.141,9.604-1.141h16.087c3.281,0,6.303,0.381,9.064,1.141
			c2.761,0.761,5.121,1.799,7.083,3.119c1.96,1.32,3.46,2.861,4.501,4.62c1.04,1.761,1.441,3.642,1.201,5.64
			c-0.161,1.762-0.822,3.041-1.981,3.84c-1.161,0.801-2.742,1.281-4.742,1.44c-2.001,0.161-4.322,0.021-6.963-0.42
			c-2.641-0.438-5.522-1.021-8.644-1.739l0.12-0.48c0.16-1.359-0.461-2.539-1.86-3.54c-1.401-0.999-3.262-1.5-5.583-1.5h-3.962
			c-2.161,0-4.123,0.501-5.882,1.5c-1.761,1.001-2.682,2.181-2.761,3.54l-0.84,2.88c-0.081,1.361,0.64,2.54,2.161,3.54
			c1.519,1.001,3.32,1.5,5.402,1.5h12.005c3.361,0,6.441,0.381,9.244,1.141c2.801,0.761,5.202,1.799,7.203,3.119
			c2,1.32,3.521,2.881,4.562,4.68c1.039,1.801,1.44,3.701,1.201,5.701L186.871,124.913z"/>
		
			<path fill="#0D1B38" stroke="#FFFFFF" stroke-width="3" stroke-linecap="round" stroke-linejoin="round" stroke-miterlimit="10" d="
			M244.854,69.474c3.281,0,6.303,0.381,9.064,1.141c2.761,0.761,5.141,1.799,7.143,3.119c2,1.32,3.5,2.861,4.502,4.62
			c1,1.761,1.381,3.642,1.141,5.64l-5.763,40.92c-0.24,1.92-1.122,3.762-2.642,5.521c-1.521,1.761-3.463,3.3-5.822,4.62
			c-2.361,1.32-5.023,2.36-7.982,3.12c-2.962,0.759-6.044,1.14-9.245,1.14h-18.488c-3.361,0-6.443-0.381-9.244-1.14
			c-2.802-0.76-5.222-1.8-7.263-3.12c-2.041-1.32-3.562-2.859-4.562-4.62c-1.001-1.759-1.38-3.601-1.14-5.521l5.522-40.92
			c0.24-1.998,1.141-3.879,2.701-5.64c1.561-1.759,3.542-3.3,5.943-4.62c2.401-1.32,5.121-2.358,8.163-3.119
			c3.041-0.76,6.243-1.141,9.604-1.141H244.854z M244.494,86.634c0.078-1.359-0.602-2.539-2.042-3.54
			c-1.44-0.999-3.283-1.5-5.522-1.5h-6.123c-2.161,0-4.123,0.501-5.882,1.5c-1.761,1.001-2.682,2.181-2.761,3.54l-5.282,35.76
			c-0.161,1.361,0.499,2.48,1.981,3.359c1.48,0.882,3.38,1.32,5.703,1.32h5.882c2.401,0,4.421-0.438,6.063-1.32
			c1.639-0.879,2.581-1.998,2.821-3.359L244.494,86.634z"/>
		
			<path fill="#0D1B38" stroke="#FFFFFF" stroke-width="3" stroke-linecap="round" stroke-linejoin="round" stroke-miterlimit="10" d="
			M340.652,83.993c-0.641,3.762-2.82,5.94-6.543,6.541c-3.721,0.6-9.023-0.541-15.906-3.42l0.36-0.48
			c0.079-1.359-0.621-2.539-2.101-3.54c-1.482-0.999-3.302-1.5-5.463-1.5h-5.762c-2.322,0-4.363,0.501-6.123,1.5
			c-1.762,1.001-2.683,2.181-2.762,3.54l-5.162,34.561c-0.16,1.279,0.48,2.399,1.922,3.359c1.439,0.96,3.319,1.439,5.642,1.439
			h5.763c2.16,0,4.16-0.479,6.002-1.439c1.841-0.96,2.921-2.08,3.242-3.359l0.359-5.761h21.97l-1.081,7.92
			c-0.24,2.001-1.121,3.899-2.641,5.7c-1.521,1.8-3.463,3.359-5.822,4.68c-2.361,1.32-5.063,2.361-8.104,3.12
			c-3.043,0.761-6.242,1.14-9.604,1.14h-17.889c-3.361,0-6.443-0.379-9.243-1.14c-2.803-0.759-5.204-1.8-7.203-3.12
			c-2.001-1.32-3.522-2.88-4.562-4.68c-1.041-1.801-1.441-3.699-1.201-5.7l5.402-39.36c0.24-1.998,1.12-3.879,2.641-5.64
			c1.52-1.759,3.482-3.3,5.883-4.62c2.401-1.32,5.143-2.358,8.224-3.119c3.08-0.76,6.303-1.141,9.664-1.141h18.008
			c3.361,0,6.482,0.381,9.364,1.141c2.881,0.761,5.342,1.799,7.383,3.119s3.561,2.861,4.563,4.62
			C340.872,80.114,341.133,81.995,340.652,83.993z"/>
		
			<path fill="#0D1B38" stroke="#FFFFFF" stroke-width="3" stroke-linecap="round" stroke-linejoin="round" stroke-miterlimit="10" d="
			M350.496,70.674c3.361-0.799,6.401-1.2,9.123-1.2c2.721,0,4.982,0.48,6.783,1.439c1.801,0.961,3.08,2.461,3.842,4.5
			c0.76,2.041,0.859,4.74,0.3,8.101l-7.563,54.601h-22.089L350.496,70.674z M375.227,51.114l-1.922,13.319h-21.849l1.561-13.319
			H375.227z"/>
		
			<path fill="#0D1B38" stroke="#FFFFFF" stroke-width="3" stroke-linecap="round" stroke-linejoin="round" stroke-miterlimit="10" d="
			M439.092,137.993c-15.288,2.08-22.57,1.48-21.85-1.799c-2.482,0.959-4.982,1.721-7.504,2.279c-2.521,0.559-5.063,0.84-7.623,0.84
			h-7.443c-3.361,0-6.443-0.381-9.243-1.14c-2.802-0.76-5.222-1.8-7.263-3.12s-3.563-2.859-4.563-4.62
			c-1.002-1.759-1.381-3.601-1.141-5.521l2.401-15.719c0.319-2,1.239-3.9,2.761-5.701c1.52-1.799,3.44-3.359,5.763-4.68
			c2.32-1.32,4.962-2.358,7.923-3.119c2.961-0.76,6.043-1.141,9.244-1.141h14.286c2.239,0,4.241-0.499,6.003-1.5
			c1.76-1,2.72-2.179,2.881-3.54l0.48-2.88c0.159-1.359-0.461-2.539-1.861-3.54c-1.4-0.999-3.262-1.5-5.582-1.5h-5.883
			c-2.16,0-4.123,0.501-5.882,1.5c-1.762,1.001-2.722,2.181-2.882,3.54l-0.48,0.48h-21.608l0.24-3.121
			c0.24-1.998,1.141-3.879,2.701-5.64c1.561-1.759,3.542-3.3,5.942-4.62s5.121-2.358,8.164-3.119c3.04-0.76,6.242-1.141,9.604-1.141
			h18.008c3.361,0,6.441,0.381,9.244,1.141c2.8,0.761,5.18,1.799,7.143,3.119c1.96,1.32,3.439,2.861,4.441,4.62
			c1,1.761,1.34,3.642,1.021,5.64L439.092,137.993z M421.564,103.794c-2.162,0.959-4.502,1.661-7.023,2.1
			c-2.521,0.441-5.184,0.66-7.983,0.66h-1.561c-2.241,0-4.202,0.5-5.883,1.5c-1.681,1.001-2.683,2.181-3.001,3.54l-1.32,10.8
			c-0.162,1.361,0.498,2.48,1.98,3.359c1.48,0.882,3.381,1.32,5.703,1.32h7.922c2.24,0,4.203-0.438,5.883-1.32
			c1.682-0.879,2.642-1.998,2.881-3.359L421.564,103.794z"/>
		
			<path fill="#0D1B38" stroke="#FFFFFF" stroke-width="3" stroke-linecap="round" stroke-linejoin="round" stroke-miterlimit="10" d="
			M493.834,125.993l-1.682,11.041c-1.199,0.4-2.461,0.66-3.781,0.779c-1.32,0.12-2.662,0.18-4.021,0.18h-5.281
			c-3.363,0-6.443-0.379-9.244-1.14c-2.803-0.759-5.184-1.8-7.145-3.12s-3.461-2.88-4.502-4.68c-1.041-1.801-1.48-3.699-1.32-5.7
			l6.123-40.68h-8.283l1.801-12h7.924l0.959-5.521c0.32-2.559,1.301-4.879,2.941-6.959s3.621-3.781,5.943-5.101
			c2.32-1.32,4.82-2.22,7.504-2.7c2.68-0.48,5.221-0.359,7.623,0.359l-3.123,19.921h8.285l-1.801,12h-8.164l-5.283,38.521
			c-0.238,1.279,0.34,2.399,1.742,3.359c1.398,0.96,3.26,1.439,5.582,1.439h6.123H493.834z"/>
		
			<path fill="#0D1B38" stroke="#FFFFFF" stroke-width="3" stroke-linecap="round" stroke-linejoin="round" stroke-miterlimit="10" d="
			M507.037,83.993c0.24-1.998,1.119-3.879,2.641-5.64c1.52-1.759,3.482-3.3,5.883-4.62s5.143-2.358,8.225-3.119
			c3.08-0.76,6.303-1.141,9.664-1.141h18.006c3.361,0,6.441,0.381,9.244,1.141c2.801,0.761,5.182,1.781,7.145,3.06
			c1.959,1.28,3.42,2.78,4.381,4.5c0.961,1.722,1.279,3.54,0.961,5.46l-2.881,21.24h-43.939l-2.281,16.32
			c-0.16,1.279,0.48,2.399,1.922,3.359c1.439,0.96,3.32,1.439,5.643,1.439h5.762c2.16,0,4.16-0.479,6.002-1.439
			c1.84-0.96,2.922-2.08,3.242-3.359v-2.16c4.4-1.681,8.242-2.881,11.525-3.601c3.279-0.72,5.861-0.919,7.742-0.601
			c1.879,0.321,3.002,1.182,3.361,2.58c0.361,1.401-0.102,3.381-1.381,5.94c-0.801,1.841-1.98,3.62-3.541,5.341
			s-3.463,3.281-5.703,4.68c-2.24,1.4-4.783,2.52-7.623,3.359c-2.842,0.84-5.941,1.26-9.303,1.26h-17.889
			c-3.361,0-6.443-0.379-9.244-1.14c-2.801-0.759-5.203-1.8-7.201-3.12c-2.002-1.32-3.523-2.88-4.563-4.68
			c-1.041-1.801-1.441-3.699-1.201-5.7L507.037,83.993z M528.166,92.874h22.209l1.08-6.24c0.08-1.359-0.619-2.539-2.1-3.54
			c-1.482-0.999-3.303-1.5-5.463-1.5h-5.762c-2.322,0-4.363,0.501-6.123,1.5c-1.762,1.001-2.682,2.181-2.762,3.54L528.166,92.874z"
			/>
	</g>
</g>
</svg>
