<?xml version="1.0" encoding="utf-8"?>
<!-- Generator: Adobe Illustrator 16.0.0, SVG Export Plug-In . SVG Version: 6.00 Build 0)  -->
<!DOCTYPE svg PUBLIC "-//W3C//DTD SVG 1.1//EN" "http://www.w3.org/Graphics/SVG/1.1/DTD/svg11.dtd">
<svg version="1.1" id="Capa_1" xmlns="http://www.w3.org/2000/svg" xmlns:xlink="http://www.w3.org/1999/xlink" x="0px" y="0px"
	 width="1500px" height="1500px" viewBox="0 0 1500 1500" enable-background="new 0 0 1500 1500" xml:space="preserve">
<rect y="-3.764" opacity="0.7" fill="#616B7A" width="1500" height="1503.764"/>
<g>
	<g>
		<linearGradient id="SVGID_1_" gradientUnits="userSpaceOnUse" x1="1244.3984" y1="818.0039" x2="1078.3296" y2="908.823">
			<stop  offset="0" style="stop-color:#000000;stop-opacity:0.1"/>
			<stop  offset="0.9949" style="stop-color:#000000;stop-opacity:0.5"/>
		</linearGradient>
		<path opacity="0.7" fill="url(#SVGID_1_)" d="M1238.131,825.978c-22.664-11.417-33.049-1.936-39.038,3.853
			c-0.419,0.41-1.497,1.308-1.333,1.403c-3.695,3.434-4.047,7.096-0.941,9.89c-0.875-0.123-1.76-0.216-2.658-0.28
			c-2.219-0.304-6.911-0.891-12.842-1.376h-0.005c-0.694-0.052-1.4-0.103-2.123-0.15c-0.01,0-0.01,0-0.019,0
			c-0.721-0.049-1.454-0.097-2.2-0.137c-0.008-0.005-0.021-0.005-0.03-0.005c-0.748-0.04-1.502-0.078-2.274-0.112
			c-0.009-0.003-0.019-0.003-0.027-0.003c-0.77-0.035-1.553-0.064-2.35-0.091c-0.005,0-0.01,0-0.014,0
			c-0.802-0.024-1.604-0.046-2.416-0.062c-0.005,0-0.006,0-0.009,0c-3.271-0.059-6.649-0.034-10.01,0.103c-0.005,0-0.006,0-0.006,0
			c-0.841,0.039-1.678,0.084-2.512,0.136c-0.006,0-0.009,0-0.009,0c-0.834,0.054-1.655,0.109-2.473,0.177
			c-0.011,0-0.022,0.004-0.032,0.004c-8.332,0.738-16.108,2.269-21.146,4.969c-14.106,7.573-4.355,16.354-1.305,18.495
			l-48.528,31.861c0,0-16.468,2.693-23.127,4.321c-6.695,1.684,26.617,0.372,26.617,0.372l8.423-4.367l47.456-23.827l5.869,1.016
			l-46.277,22.865l-0.262-0.006l-10.023,4.203c0,0,27.292,1.054,26.871-0.13c-0.385-1.236-5.312-3.751-5.312-3.751l-0.458-0.012
			l67.043-24.41c10.871,0.121,27.269-0.05,35.709-3.422c4.969-1.988,4.901-5.274,2.941-8.761c-0.017-0.033-0.037-0.067-0.056-0.106
			c-0.259-0.469-0.541-0.939-0.855-1.413c-0.015-0.024-0.029-0.045-0.044-0.068c-0.976-1.49-2.189-2.979-3.454-4.374
			c-0.01-0.012-0.019-0.021-0.028-0.033c-1.563-1.767-3.2-3.373-4.538-4.616c-0.366-0.956-1.061-1.88-2.149-2.757
			c8.851,1.385,19.71,0.471,27.261-2.68c-1.923,0.904-3.506,1.402-2.877,1.338C1234.559,843.837,1260.741,837.492,1238.131,825.978z
			 M1163.598,846.529c-0.066,0.024-0.135,0.049-0.202,0.073c-1.637,0.619-3.23,1.256-4.772,1.906
			c-0.009,0.002-0.019,0.01-0.029,0.011c-8.663,3.673-15.651,7.593-19.67,10.009c-2.744-3.008-5.126-8.076,2.351-11.98
			c3.662-1.911,10.41-2.938,17.955-3.363c5.067-0.24,7.652,0.362,12.764,0.549C1169.099,844.569,1166.291,845.521,1163.598,846.529z
			 M1210.133,858.975c1.502,2.685,1.539,5.066-1.649,6.406c-4.449,1.866-12.462,2.401-19.881,2.512
			c3.117-1.293,6.813-2.958,10.259-4.863c0.034-0.015,0.068-0.033,0.099-0.052c0.997-0.556,1.973-1.13,2.908-1.727
			c0.066-0.043,0.132-0.086,0.198-0.126c0.908-0.585,1.774-1.188,2.58-1.803c0.074-0.056,0.147-0.111,0.219-0.166
			c0.396-0.309,0.778-0.616,1.142-0.93c0,0,0,0,0-0.003c0.559-0.483,1.083-0.976,1.554-1.479
			C1208.513,857.88,1209.549,857.874,1210.133,858.975z"/>
		<g>
			<g>
				<path fill="#CBA586" d="M1078.689,726.426l-3.716-8.287c-4.117,1.848-40.257,18.668-40.737,40.374
					c-0.495,22.146,26.524,35.227,27.672,35.772l3.902-8.203c-0.229-0.109-22.856-11.111-22.498-27.369
					C1043.615,745.131,1068.953,730.803,1078.689,726.426z"/>
			</g>
			<g>
				<path fill="#CBA586" d="M1090.366,718.139l-3.719,8.287c9.739,4.377,35.077,18.705,35.38,32.287
					c0.359,16.258-22.269,27.26-22.497,27.369l3.901,8.203c1.149-0.546,28.166-13.627,27.674-35.772
					C1130.625,736.808,1094.485,719.987,1090.366,718.139z"/>
			</g>
			<path fill="#CBA586" d="M1083.102,663.469c-11.58,0-20.975,12.382-20.975,27.656c0,15.271,9.395,27.652,20.975,27.652
				c11.587,0,20.977-12.38,20.977-27.652C1104.078,675.851,1094.688,663.469,1083.102,663.469z"/>
			<path fill="#CBA586" d="M1083.534,715.751c-30.58-0.313-23.786,72.702-23.786,72.702h52.095
				C1111.843,788.453,1114.11,716.062,1083.534,715.751z"/>
			<polygon fill="#253D57" points="1073.37,884.029 1085.481,884.029 1082.888,807.481 1089.374,807.481 1092.402,884.461 
				1103.213,885.329 1111.843,788.453 1059.748,788.453 			"/>
			<path fill="#663D1C" d="M1073.37,884.029c0,0-10.811,8.649-14.271,13.408c-3.455,4.757,27.248,0.864,27.248,0.864l-0.865-14.272
				H1073.37z"/>
			<path fill="#663D1C" d="M1103.828,883.597h-11.728l-0.837,14.271c0,0,29.741,3.893,26.391-0.866
				C1114.301,892.246,1103.828,883.597,1103.828,883.597z"/>
			<path fill="#663D1C" d="M1082.777,662.063c-29.187,0.972-24.005,22.047-20.434,35.032c0.497,1.786,1.778,8.169,0.7-5.019
				c-1.024-12.499,2.295-17.363,15.191-17.363c4.04,0,9.976-0.359,13.964-0.016c15.229,1.311,11.082,23.555,11.984,21.749
				C1105.159,694.498,1111.969,661.089,1082.777,662.063z"/>
			<path fill="#71B3C0" d="M1085.374,724.181c-5.329,0-10.371-1.441-14.764-3.94c-6.595,3.348-18.678,10.201-27.107,19.207
				c2.9,1.363,5.808,2.711,8.685,4.126c3.432-3.222,6.191-3.628,10.205-6.245c-6.537,22.362-2.645,51.124-2.645,51.124h52.095
				c0,0.001,2.637-27.112-4.738-48.547c2.464,1.766,3.16,1.038,5.335,3.019c0.025-0.016,0.054-0.031,0.082-0.046
				c2.78-1.529,5.589-2.975,8.411-4.385c-7.309-7.453-16.977-13.339-23.546-16.864
				C1093.688,723.262,1089.62,724.181,1085.374,724.181z"/>
			<path fill="#92C3CD" d="M1060.748,744.122c-1.612,8.151-2.12,16.65-2.142,24.004h53.461c-0.4-7.406-1.412-15.939-3.655-24.004
				H1060.748z"/>
		</g>
	</g>
	<g>
		<g>
			<g>
				<path fill="#CBA586" d="M1216.926,590.854l-3.717-8.283c-4.121,1.844-40.259,18.666-40.74,40.367
					c-0.494,22.15,26.525,35.226,27.675,35.774l3.901-8.202c-0.229-0.106-22.857-11.112-22.498-27.369
					C1181.851,609.559,1207.186,595.231,1216.926,590.854z"/>
			</g>
			<path fill="#CBA586" d="M1287.506,584.549c-5.02,0-9.081,4.068-9.081,9.081c0,1.651,0.44,3.188,1.21,4.521
				c-3.985,6.722-10.378,14.337-19.247,15.305c-13.507,1.468-31.011-21.788-36.62-30.87l-7.731,4.762
				c2.371,3.846,23.754,37.485,45.333,35.135c12.616-1.37,21.1-11.305,26.127-19.769c0,0,0.005,0,0.01,0
				c5.016,0,9.08-4.066,9.08-9.085C1296.586,588.617,1292.521,584.549,1287.506,584.549z"/>
			<path fill="#467B9C" d="M1231.931,634.717c8.435-25.299,3.754-50.453-15.357-50.648c-20.22-0.206-24.859,27.939-10.591,50.648
				c5.893,9.373-8.001,22.057-8.001,22.057h41.716C1239.697,656.773,1227.885,646.856,1231.931,634.717z"/>
			<polygon fill="#CBA586" points="1211.605,766.618 1218.525,766.618 1215.93,675.802 1222.417,675.802 1225.444,767.055 
				1231.066,767.92 1239.697,656.773 1197.981,656.773 			"/>
			<path fill="#321A11" d="M1211.605,766.618c0,0-10.812,8.649-14.273,13.413c-3.457,4.757,22.059,0.864,22.059,0.864l-0.865-14.277
				H1211.605z"/>
			<path fill="#321A11" d="M1231.684,766.188h-6.537l-0.841,14.271c0,0,24.552,3.893,21.199-0.864
				C1242.154,774.838,1231.684,766.188,1231.684,766.188z"/>
			<path fill="#467B9C" d="M1231.488,645.744h-25.73c-17.521,8.434-1.644,79.14-1.644,79.14h31.759
				C1254.488,648.339,1231.488,645.744,1231.488,645.744z"/>
			<path fill="#CBA586" d="M1216.148,529.194c-11.588,0-20.977,12.385-20.977,27.652c0,15.275,9.389,27.657,20.977,27.657
				c11.579,0,20.972-12.381,20.972-27.657C1237.12,541.579,1227.728,529.194,1216.148,529.194z"/>
			<path fill="#321A11" d="M1230.546,523.689c2.044-8.651,1.721-20.445-15.267-20.445c0,0-17.232,2.084-10.436,19.786
				c-18.444,8.263-9.672,33.816-9.672,33.816s1.08-19.871,20.977-19.871c19.892,0,20.758,22.488,20.758,22.488
				S1244.777,532.998,1230.546,523.689z"/>
		</g>
		<linearGradient id="SVGID_2_" gradientUnits="userSpaceOnUse" x1="1386.3623" y1="713.9014" x2="1219.4263" y2="805.5869">
			<stop  offset="0" style="stop-color:#000000;stop-opacity:0.1"/>
			<stop  offset="0.9949" style="stop-color:#000000;stop-opacity:0.5"/>
		</linearGradient>
		<path opacity="0.7" fill="url(#SVGID_2_)" d="M1419.102,688.545c0,0-14.542-5.617-22.494,3.071
			c-20.468-3.235-32.751,8.95-32.751,8.95c-9.657,4.683-12.222,10.402-6.997,13.869c-10.616-0.831-46.636-2.225-61.941,5.318
			c-14.855,7.331-6.973,15.476-3.853,17.862l-1.409,0.845c-20.576,7.822-42.984,23.752-42.984,23.752l2.195,0.172l-25.696,14.632
			c0,0-17.084,2.843-24.072,4.529c-7.016,1.723,21.383,0.35,21.383,0.35l9.511-4.739l29.226-13.938l6.373,0.51l-28.487,13.434
			l-0.267-0.006l-11.134,4.611c0,0,21.785,1.201,21.773-0.203c0.017-1.44-4.197-4.267-4.197-4.267l-0.475-0.011l32.622-12.77
			l1.386,0.11c63.581-18.382,55.378-24.028,52.98-25.064c1.325-1.25,3.688-2.537,7.795-3.562c8.04-1.968,14.898-4.16,20.02-6.38
			c1.667,3.716,5.647,7.152,14.019,8.767c11.77,2.315,25.709,1.672,35.617,0.771c0,0,0.004,0.006,0.009,0.006
			c4.219,1.191,10.317,1.225,13.619,0.08c3.305-1.145,2.625-3.139-1.516-4.45c-4.14-1.32-10.238-1.354-13.623-0.086
			c-1.109,0.418-1.775,0.914-2.034,1.434c-7.884,0.753-18.478,1.268-26.682-0.458c-8.324-1.729-10.433-7.124-10.292-11.93
			c1.018-1.323,1.258-2.622,0.598-3.836c0.251-0.943,0.548-1.783,0.841-2.454c8.743,0.748,19.534-0.606,27.715-3.745
			c3.318-0.81,24.15-6.019,20.076-13.072C1423.718,698.637,1431.905,694.823,1419.102,688.545z M1315.022,730.927
			c-0.662,1.637-4.058,2.899-8.067,3.862l-0.276-0.056c-1.908-0.024-3.951,0.185-6.093,0.569c-2.612-2.169-8.326-8.582,1.979-13.558
			c5.863-2.832,18.4-3.966,30.294-4.188C1324.258,720.684,1317.197,725.638,1315.022,730.927z M1364.143,717.271
			c-0.372-0.187-0.771-0.369-1.2-0.545c1.604,0.342,3.339,0.588,5.173,0.734L1364.143,717.271z"/>
	</g>
	<g>
		<linearGradient id="SVGID_3_" gradientUnits="userSpaceOnUse" x1="1091.2842" y1="947.9639" x2="942.5115" y2="1027.541">
			<stop  offset="0" style="stop-color:#000000;stop-opacity:0.1"/>
			<stop  offset="0.9949" style="stop-color:#000000;stop-opacity:0.5"/>
		</linearGradient>
		<path opacity="0.7" fill="url(#SVGID_3_)" d="M1117.268,972.456c-4.094-1.312-10.304-1.348-13.884-0.085
			c-1.169,0.417-1.906,0.912-2.219,1.438c-8.103,0.748-18.933,1.264-27.105-0.458c-8.286-1.729-9.897-7.13-9.31-11.934
			c1.158-1.324,1.526-2.618,0.962-3.837c0.338-0.944,0.717-1.784,1.073-2.446c7.644,0.638,16.992-0.301,24.946-2.594
			c10.016-0.704,21.105-0.6,25.114-4.652c5.462-5.566-13.499-11.968-9.262-17.533c-11.77-1.461-28.271-3.026-38.023,0.163
			c-0.018-0.415,0.186-0.744,0.21-1.166c-8.028,3.263-18.702,8.478-13.51,13.545c0.195-0.203,0.479-0.399,0.797-0.597
			c-0.264,0.214-0.516,0.428-0.753,0.643c-0.02-0.015-0.024-0.03-0.044-0.046c-0.098,0.104-0.165,0.203-0.232,0.308
			c-3.551,3.33-3.796,6.598-0.462,8.89c-10.708-0.827-47.122-2.225-63.273,5.32c-14.699,6.878-9.286,14.502-6.117,17.364
			c-27.241,6.585-67.541,23.416-67.541,23.416l23.064,1.857l-27.449,14.625c0,0-17.44,2.848-24.632,4.527
			c-7.216,1.724,21.344,0.357,21.344,0.357l10.106-4.738l30.952-13.945l6.352,0.509l-30.183,13.437h-0.269l-11.717,4.609
			c0,0,21.628,1.195,21.804-0.208c0.212-1.441-3.646-4.267-3.646-4.267l-0.476-0.006l34.294-12.773l25.941,2.084
			c34.019-18.327,33.196-24.856,31.811-26.658l8.36-3.457l-1.151-0.265c0.28-0.074,0.569-0.146,0.871-0.22
			c8.348-1.969,15.512-4.156,20.924-6.381c1.336,3.714,5.033,7.152,13.376,8.771c11.719,2.313,25.971,1.666,36.152,0.772
			c0.006,0,0.006,0,0.011,0c4.176,1.195,10.39,1.232,13.878,0.084C1121.847,975.767,1121.355,973.767,1117.268,972.456z
			 M1011.637,968.594c-0.067,0.13-0.158,0.265-0.257,0.395l-1.729-0.387l-8.532,3.823c-1.422,0.062-2.979,0.203-4.641,0.417
			c-2.487-2.273-7.292-8.543,3.385-13.436c6.186-2.825,18.982-3.967,31.064-4.179
			C1021.929,958.354,1014.334,963.299,1011.637,968.594z M1061.552,954.388c1.594,0.348,3.334,0.594,5.185,0.739l-4.021-0.195
			C1062.359,954.749,1061.967,954.564,1061.552,954.388z"/>
		<g>
			<g>
				<g>
					<path fill="#CBA586" d="M907.345,828.52l-3.717-8.287c-4.118,1.848-40.257,18.666-40.737,40.371
						c-0.492,22.146,26.527,35.227,27.675,35.772l3.899-8.202c-0.231-0.11-22.856-11.111-22.495-27.369
						C872.27,847.225,897.609,832.895,907.345,828.52z"/>
				</g>
				<path fill="#CBA586" d="M977.927,822.214c-5.016,0-9.085,4.063-9.085,9.081c0,1.646,0.447,3.188,1.214,4.521
					c-3.985,6.721-10.378,14.338-19.246,15.301c-13.507,1.473-31.012-21.783-36.618-30.869l-7.732,4.764
					c2.366,3.843,23.75,37.484,45.332,35.137c12.619-1.374,21.103-11.306,26.121-19.773c0.008,0,0.008,0,0.015,0
					c5.012,0,9.082-4.063,9.082-9.08C987.009,826.277,982.938,822.214,977.927,822.214z"/>
				<path fill="#C85333" d="M922.354,872.379c8.432-25.301,3.753-50.449-15.357-50.645c-20.219-0.209-24.865,27.939-10.593,50.645
					c5.895,9.373-8.002,22.057-8.002,22.057h41.719C930.121,894.436,918.306,884.521,922.354,872.379z"/>
				<polygon fill="#CBA586" points="902.028,1004.288 908.948,1004.288 906.352,913.463 912.841,913.463 915.865,1004.716 
					921.49,1005.58 930.121,894.436 888.402,894.436 				"/>
				<path fill="#321A11" d="M902.028,1004.288c0,0-10.812,8.649-14.271,13.403c-3.462,4.758,22.056,0.865,22.056,0.865
					l-0.864-14.269H902.028z"/>
				<path fill="#321A11" d="M922.105,1003.853h-6.537l-0.84,14.27c0,0,24.552,3.892,21.199-0.864
					C932.577,1012.501,922.105,1003.853,922.105,1003.853z"/>
				<path fill="#C85333" d="M921.912,883.409h-25.73c-17.521,8.43-23.701,79.144-23.701,79.144h79.762
					C938.571,888.814,921.912,883.409,921.912,883.409z"/>
				<path fill="#CBA586" d="M906.569,766.855c-11.588,0-20.979,12.385-20.979,27.656s9.392,27.653,20.979,27.653
					c11.582,0,20.974-12.382,20.974-27.653S918.151,766.855,906.569,766.855z"/>
			</g>
			<rect x="894.889" y="873.244" fill="#321A11" width="28.543" height="12.111"/>
			<g>
				<path fill="#321A11" d="M887.407,805.961c0.241,0.591,0.554,1.127,0.995,1.545l-0.864-1.479
					C887.492,806.008,887.452,805.979,887.407,805.961z"/>
				<path fill="#321A11" d="M903.13,755.911c-9.81,5.59-23.106,13.644-25.086,23.971c-0.626-0.587-0.967-1.168-1.574-1.788
					c-0.747,9.323-0.446,22.967,10.938,27.867c-2.054-5.053,2.778-15.623,7.267-19.751c7.465-6.871,11.751-6.973,16.871,1.04
					c0.768-0.946,2.21-1.579,2.976-2.595c6.961,2.553,11.25,13.34,10.168,19.671c5.296-8.95,15.632-16.809,11.095-27.768
					C930.506,763.809,908.659,766.843,903.13,755.911z"/>
			</g>
		</g>
	</g>
	<g>
		<linearGradient id="SVGID_4_" gradientUnits="userSpaceOnUse" x1="688.8418" y1="653.1348" x2="572.9398" y2="708.4907">
			<stop  offset="0" style="stop-color:#000000;stop-opacity:0.1"/>
			<stop  offset="0.9949" style="stop-color:#000000;stop-opacity:0.5"/>
		</linearGradient>
		<path opacity="0.7" fill="url(#SVGID_4_)" d="M711.431,642.566c-22.668-11.419-33.051-1.929-39.036,3.859
			c-0.421,0.406-1.501,1.302-1.335,1.397c-3.698,3.437-4.049,7.096-0.943,9.89c-0.873-0.12-1.759-0.215-2.66-0.277
			c-2.215-0.302-6.908-0.896-12.84-1.373c0,0-0.005,0-0.006,0c-0.689-0.055-1.397-0.104-2.122-0.154
			c-0.005-0.006-0.011-0.006-0.019-0.006c-0.715-0.046-1.454-0.089-2.202-0.135c-0.009,0-0.015,0-0.024,0
			c-0.748-0.04-1.511-0.083-2.279-0.111c-0.009,0-0.015,0-0.024,0c-0.772-0.04-1.556-0.067-2.351-0.095c-0.006,0-0.011,0-0.015,0
			c-0.797-0.028-1.604-0.049-2.416-0.064c-0.001,0-0.005,0-0.005,0c-3.274-0.059-6.651-0.031-10.014,0.107c-0.001,0-0.004,0-0.004,0
			c-0.843,0.037-1.677,0.08-2.511,0.129c-0.004,0-0.012,0-0.015,0c-0.828,0.055-1.652,0.111-2.468,0.182c-0.011,0-0.02,0-0.034,0
			c-8.333,0.741-16.103,2.274-21.143,4.969c-14.108,7.576-4.357,16.358-1.308,18.493l-48.525,31.863c0,0-16.47,2.699-23.127,4.32
			c-6.696,1.686,26.613,0.375,26.613,0.375l8.425-4.373l47.46-23.819l5.865,1.009l-46.276,22.872l-0.259-0.009l-10.028,4.207
			c0,0,27.293,1.055,26.875-0.136c-0.391-1.237-5.316-3.751-5.316-3.751l-0.457-0.009l67.038-24.414
			c10.874,0.123,27.273-0.046,35.714-3.418c4.968-1.988,4.905-5.274,2.938-8.761c-0.019-0.037-0.034-0.07-0.054-0.104
			c-0.254-0.471-0.54-0.938-0.851-1.412c-0.015-0.021-0.034-0.049-0.049-0.068c-0.972-1.493-2.186-2.985-3.452-4.378
			c-0.009-0.016-0.019-0.021-0.031-0.031c-1.56-1.769-3.2-3.375-4.536-4.618c-0.368-0.954-1.062-1.877-2.148-2.757
			c8.847,1.385,19.708,0.474,27.261-2.68c-1.925,0.905-3.506,1.406-2.878,1.339C707.855,660.432,734.041,654.081,711.431,642.566z
			 M612.22,675.116c-2.743-3.006-5.128-8.074,2.354-11.976c3.659-1.908,10.408-2.941,17.95-3.363
			c5.072-0.24,7.656,0.36,12.768,0.548C630.621,664.657,618.17,671.54,612.22,675.116z M683.434,675.565
			c1.497,2.686,1.537,5.065-1.651,6.407c-4.449,1.864-12.465,2.403-19.884,2.517c6.179-2.563,14.665-6.625,18.964-11.154
			C681.811,674.473,682.848,674.463,683.434,675.565z"/>
		<g>
			<g>
				<g>
					<path fill="#CBA586" d="M551.989,543.017l-3.717-8.282c-4.116,1.843-40.255,18.667-40.742,40.366
						c-0.489,22.152,26.53,35.23,27.681,35.774l3.902-8.207c-0.231-0.104-22.859-11.111-22.5-27.365
						C516.917,561.721,542.251,547.396,551.989,543.017z"/>
				</g>
				<g>
					<path fill="#CBA586" d="M563.665,534.735l-3.717,8.282c9.737,4.378,35.075,18.704,35.377,32.288
						c0.363,16.254-22.266,27.26-22.496,27.365l3.901,8.207c1.151-0.544,28.17-13.622,27.675-35.774
						C603.921,553.402,567.785,536.578,563.665,534.735z"/>
				</g>
				<path fill="#CBA586" d="M556.402,480.059c-11.585,0-20.976,12.385-20.976,27.653c0,15.275,9.391,27.657,20.976,27.657
					c11.585,0,20.974-12.382,20.974-27.657C577.376,492.444,567.988,480.059,556.402,480.059z"/>
				<path fill="#CBA586" d="M556.832,532.338c-30.582-0.312-23.784,72.707-23.784,72.707h52.098
					C585.146,605.045,587.409,532.652,556.832,532.338z"/>
				<polygon fill="#467B9C" points="546.673,700.622 558.781,700.622 556.187,624.074 562.672,624.074 565.7,701.052 
					576.514,701.917 585.146,605.045 533.048,605.045 				"/>
				<path fill="#4C423C" d="M546.673,700.622c0,0-10.813,8.652-14.274,13.407c-3.456,4.754,27.248,0.861,27.248,0.861l-0.865-14.268
					H546.673z"/>
				<path fill="#4C423C" d="M577.13,700.185H565.4l-0.837,14.274c0,0,29.741,3.896,26.387-0.865
					C587.601,708.837,577.13,700.185,577.13,700.185z"/>
				<path fill="#663D1C" d="M556.076,478.654c-29.184,0.972-24.001,22.05-20.435,35.03c0.499,1.79,1.779,8.173,0.702-5.015
					c-1.024-12.502,2.292-17.366,15.191-17.366c4.04,0,9.978-0.358,13.964-0.016c15.228,1.315,11.081,23.557,11.985,21.745
					C578.459,511.088,585.269,477.681,556.076,478.654z"/>
				<path fill="#C85333" d="M558.673,540.772c-5.333,0-10.373-1.44-14.764-3.942c-6.596,3.345-18.679,10.204-27.109,19.204
					c2.9,1.369,5.81,2.714,8.687,4.134c3.431-3.225,6.191-3.632,10.207-6.247c-6.537,22.363-2.646,51.123-2.646,51.123h52.098
					c0,0,2.634-27.114-4.739-48.546c2.465,1.763,3.159,1.036,5.331,3.014c0.029-0.015,0.054-0.031,0.082-0.044
					c2.782-1.531,5.589-2.978,8.411-4.383c-7.307-7.448-16.969-13.342-23.544-16.864
					C566.988,539.853,562.92,540.772,558.673,540.772z"/>
			</g>
			<path fill="#663D1C" d="M570.457,486.977l-32.866,4.759c-1.132,3.361-1.946,7.302-1.686,11.176
				c4.488,2.329,8.744-4.047,9.805-7.593c0.254,3.063-1.523,9.304,3.232,8.987c3.9-0.256,4.775-6.051,5.079-8.975
				c0.225,3.157,1.217,8.342,5.528,8.109c3.065-0.163,4.747-3.587,4.402-6.395c0.714,4.986,7.942,6.613,8.212,0.878
				c1.729,5.697,5.051-0.776,4.36-4.145C575.748,490.021,573.194,488.827,570.457,486.977z"/>
		</g>
	</g>
	<g>
		<linearGradient id="SVGID_5_" gradientUnits="userSpaceOnUse" x1="879.4277" y1="794.1621" x2="769.5774" y2="860.7643">
			<stop  offset="0" style="stop-color:#000000;stop-opacity:0.1"/>
			<stop  offset="0.9949" style="stop-color:#000000;stop-opacity:0.5"/>
		</linearGradient>
		<path opacity="0.7" fill="url(#SVGID_5_)" d="M917.637,798.13c-3.394-2.452-9.84-3.034-14.333-4.313
			c-5.425-1.505-3.6-1.44-1.688-3.246c-1.727-0.025-7.028,1.362-8.361,0.027c-0.935-0.945,4.93-3.483,5.357-4.369
			c-4.2,0.391-7.893,2.806-12.659,2.252c-0.292-1.561,2.539-2.904,1.314-4.505c-3.234,0.966-5.465,2.81-8.961,3.579
			c-0.006,0-0.009,0-0.015-0.004c-1.08-1.677,0.914-3.354,0.591-5.12c-1.898,0.898-3.588,1.988-5.521,2.877
			c-0.22-1.522,0.043-3.781-2.053-5.169c-4.701,1.936-4.889,5.674-7.409,8.32c-0.292,0.302-0.609,0.594-0.93,0.886
			c-0.683,0.339-1.329,0.699-1.937,1.083l0.41,0.186c-2.431,1.877-5.269,3.634-7.219,5.707c-0.383,0.41-1.372,1.309-1.198,1.406
			c-3.353,3.438-3.401,7.093-0.115,9.887c-0.868-0.123-1.748-0.218-2.636-0.276c-4.786-0.655-21.232-2.493-36.367-1.702
			c-0.002,0.007-0.008,0.007-0.011,0.007c-0.813,0.052-1.619,0.107-2.42,0.175c-0.008,0-0.021,0.003-0.029,0.003c0,0,0,0,0.003,0
			c-8.156,0.739-15.696,2.271-20.444,4.967c-13.293,7.575-2.883,16.354,0.326,18.496l-44.88,31.862c0,0-16.136,2.696-22.606,4.324
			c-6.5,1.68,26.657,0.369,26.657,0.369l7.871-4.37l44.491-23.822l5.901,1.013l-43.35,22.868l-0.26-0.009l-9.483,4.206
			c0,0,27.439,1.053,26.84-0.132c-0.559-1.24-5.815-3.748-5.815-3.748l-0.456-0.016l63.56-24.413
			c10.724,0.123,26.823-0.04,34.743-3.419c4.659-1.987,4.265-5.273,1.997-8.76c-0.019-0.034-0.043-0.071-0.064-0.105
			c-0.296-0.471-0.619-0.938-0.97-1.412c-0.015-0.021-0.036-0.049-0.055-0.077c-1.093-1.485-2.424-2.976-3.79-4.369
			c-0.009-0.013-0.022-0.019-0.033-0.03c-1.691-1.767-3.439-3.373-4.86-4.619c-0.446-0.954-1.208-1.88-2.348-2.757
			c8.778,1.385,19.314,0.474,26.425-2.662c-1.784,0.89-3.268,1.382-2.658,1.323c1.191-0.126,11.216-2.68,13.216-7.123
			c3.948-0.326,9.606,0.323,12.303-0.532c-1.635-0.329-3.392-0.698-4.779-1.323c2.157-0.483,5.671,0.15,7.776-0.336
			c-3.087-0.975-7.194-1.212-9.868-2.298C909.815,798.133,914.966,799.022,917.637,798.13z M797.429,825.023
			c-2.979-3.01-5.774-8.08,1.275-11.982c3.451-1.91,10.015-2.936,17.412-3.363c4.972-0.239,7.566,0.363,12.615,0.552
			C814.656,814.556,802.979,821.445,797.429,825.023z M864.843,823.235c1.041,1.139,2.056,1.13,2.735,2.231
			c1.735,2.689,2.011,5.067-0.98,6.406c-4.179,1.868-11.997,2.4-19.28,2.514C853.133,831.824,861.063,827.769,864.843,823.235z"/>
		<g>
			<g>
				<g>
					<path fill="#CBA586" d="M741.933,692.919l-3.717-8.287c-4.12,1.85-40.26,18.666-40.74,40.371
						c-0.494,22.146,26.525,35.227,27.675,35.773l3.902-8.2c-0.229-0.11-22.858-11.111-22.501-27.37
						C706.857,711.622,732.192,697.298,741.933,692.919z"/>
				</g>
				<g>
					<path fill="#CBA586" d="M753.605,684.633l-3.717,8.287c9.735,4.379,35.075,18.703,35.377,32.288
						c0.362,16.259-22.266,27.26-22.497,27.37l3.902,8.2c1.15-0.547,28.17-13.628,27.675-35.773
						C793.864,703.298,757.726,686.482,753.605,684.633z"/>
				</g>
				<path fill="#CBA586" d="M746.344,629.96c-11.585,0-20.977,12.385-20.977,27.657c0,15.271,9.392,27.653,20.977,27.653
					s20.973-12.382,20.973-27.653C767.316,642.345,757.929,629.96,746.344,629.96z"/>
				<path fill="#CBA586" d="M746.771,682.239c-30.577-0.308-23.783,72.708-23.783,72.708h52.096
					C775.085,754.947,777.35,682.556,746.771,682.239z"/>
				<polygon fill="#467B9C" points="736.612,850.523 748.721,850.523 746.128,773.976 752.613,773.976 755.641,850.954 
					766.455,851.818 775.085,754.947 722.989,754.947 				"/>
				<path fill="#4C423C" d="M736.612,850.523c0,0-10.811,8.646-14.273,13.406c-3.461,4.754,27.246,0.868,27.246,0.868l-0.865-14.274
					H736.612z"/>
				<path fill="#4C423C" d="M767.07,850.089h-11.729l-0.837,14.274c0,0,29.74,3.893,26.388-0.87
					C777.542,858.738,767.07,850.089,767.07,850.089z"/>
				<path fill="#321A11" d="M768.22,629.037c0.666-2.772,3.616-4.902,4.231-7.678c-3.122,1.191-5.917,4.521-8.969,5.083
					c0.797-3.96,5.068-7.164,5.496-11.121c-5.185-0.883-9.838,4-14.234,5.902c-5.294,2.283-4.074,0.819-5.148-3.649
					c-1.105,1.456-2.708,8.108-5.232,7.136c-1.774-0.683-1.208-9.483-2.023-11.167c-2.178,4.123-1.548,10.853-5.308,13.88
					c-2.115-2.126-1.935-6.431-4.683-7.806c-0.916,4.031-0.111,8.563-1.464,12.465c-0.006,0.006-0.011,0.006-0.011,0.006
					c-2.783-1.689-3.513-5.727-5.87-8.062c-0.165,2.794,0.044,5.708-0.157,8.502c-2.004-2.083-4.566-5.579-7.628-5.973
					c-0.837,6.317,3.576,11.939,5.124,17.786c0.178,0.67,0.325,1.351,0.466,2.028c-0.047,1.012-0.034,2.043,0.025,3.071l0.512-0.016
					c0.689,4.674,0.945,9.462,2.24,14.158c0.495,1.794,1.775,8.173,0.698-5.013c-0.311-3.754-0.212-6.8,0.402-9.252
					c0,0,37.496-2.465,37.51-3.102c4.548,6.847,2.576,18.022,3.229,16.721c0.602-1.2,3.412-14.367-1.366-24.053
					c2.001-4.025,6.32-7.954,6.802-11.902C771.44,627.908,769.89,628.861,768.22,629.037z"/>
				<path fill="#321A11" d="M748.614,690.673c-5.332,0-10.374-1.44-14.764-3.939c-6.596,3.348-18.679,10.201-27.11,19.207
					c2.902,1.363,5.811,2.705,8.688,4.126c3.429-3.222,6.191-3.631,10.207-6.243c-6.539,22.361-2.646,51.123-2.646,51.123h52.096
					c0,0,2.636-27.115-4.737-48.547c2.463,1.763,3.154,1.04,5.331,3.015c0.029-0.015,0.054-0.031,0.081-0.046
					c2.782-1.529,5.589-2.973,8.412-4.385c-7.307-7.449-16.972-13.336-23.545-16.859
					C756.926,689.756,752.861,690.673,748.614,690.673z"/>
			</g>
		</g>
	</g>
	<g>
		<g>
			<path fill="#ECD6BB" d="M216.444,494.477c-5.606-5.612-15.889-11.46-21.643-8.409c-13.327,0.238-21.858,15.782-23.764,27.817
				c-1.225,7.729-1.157,15.578-1.157,23.534c0,6.348,1.969,15.918-2.382,21.148c13.631,1.873,23.756,9.039,38.208,8.528
				c11.136-0.392,18.518-7.379,28.816-9.065c-8.414-7.447-6.505-29.114-7.413-39.584
				C226.264,508.696,223.369,501.408,216.444,494.477z"/>
			<path fill="#CBA586" d="M198.86,492.713c-11.588,0-20.976,12.381-20.976,27.655c0,15.273,9.388,27.653,20.976,27.653
				c11.582,0,20.97-12.38,20.97-27.653C219.83,505.094,210.442,492.713,198.86,492.713z"/>
			<path fill="#CBA586" d="M214.642,595.639c8.434-25.297,3.754-50.45-15.357-50.646c-20.219-0.206-24.86,27.941-10.591,50.646
				c5.893,9.373-8,22.056-8,22.056h41.716C222.409,617.695,210.596,607.777,214.642,595.639z"/>
			<polygon fill="#CBA586" points="194.318,727.546 201.235,727.546 198.642,636.727 205.128,636.727 208.154,727.973 
				213.776,728.841 222.409,617.695 180.693,617.695 			"/>
			<g>
				<path fill="#CBA586" d="M199.638,551.78l-3.718-8.287c-4.119,1.844-40.26,18.668-40.739,40.37
					c-0.494,22.148,26.522,35.226,27.672,35.777l3.899-8.207c-0.225-0.106-22.856-11.111-22.494-27.369
					C164.56,570.48,189.899,556.153,199.638,551.78z"/>
			</g>
			<g>
				<path fill="#CBA586" d="M202.228,543.493l-3.715,8.287c9.736,4.373,35.072,18.7,35.377,32.284
					c0.363,16.257-22.266,27.263-22.493,27.369l3.896,8.207c1.147-0.551,28.172-13.628,27.675-35.777
					C242.483,562.161,206.35,545.337,202.228,543.493z"/>
			</g>
			<path fill="#321A11" d="M194.318,727.546c0,0-10.813,8.649-14.271,13.405c-3.465,4.759,22.056,0.866,22.056,0.866l-0.868-14.271
				H194.318z"/>
			<path fill="#321A11" d="M214.395,727.112h-6.537l-0.84,14.273c0,0,24.552,3.891,21.198-0.866
				C224.864,735.758,214.395,727.112,214.395,727.112z"/>
			<path fill="#467B9C" d="M214.202,606.67h-25.73c-17.525,8.433-1.643,79.142-1.643,79.142h31.752
				C237.197,609.262,214.202,606.67,214.202,606.67z"/>
			<polygon fill="#C85333" points="175.721,567.095 188.472,606.67 217.239,606.67 222.427,568.395 223.076,555.418 
				174.425,555.418 			"/>
			<path fill="#ECD6BB" d="M200.371,488.604c-6.957-1.486-15.351,2.66-18.019,9.727c-2.577,6.82-12.471,24.004,10.32,10.488
				c9.93,9.231,23.806,14.857,26.01,29.036c5.734-7.98,4.631-24.77-0.007-33.212C214.812,497.598,208.417,490.32,200.371,488.604z"
				/>
		</g>
		<linearGradient id="SVGID_6_" gradientUnits="userSpaceOnUse" x1="322.4404" y1="678.7446" x2="178.4269" y2="737.7772">
			<stop  offset="0" style="stop-color:#000000;stop-opacity:0.1"/>
			<stop  offset="0.9949" style="stop-color:#000000;stop-opacity:0.5"/>
		</linearGradient>
		<path opacity="0.7" fill="url(#SVGID_6_)" d="M336.22,661.327c-10.19-6.329-25.5-4.846-33.857-1.333
			c-5.388,2.298-9.837,5.195-14.396,8.1c-3.64,2.322-7.518,6.516-14.091,6.903c0.772,0.408,1.501,0.83,2.211,1.245
			c-10.661-0.247-21.481,0.781-27.225,4.434c-11.446,7.302-1.529,16.822,2.179,19.62l-1.006,0.828
			c-16.33,7.29-31.157,23.007-31.157,23.007l2.187,0.25l-18.072,13.896c0,0-15.493,2.623-21.616,4.222
			c-6.145,1.665,21.537,0.36,21.537,0.36l6.896-4.378l21.561-12.927l6.345,0.723l-20.881,12.28l-0.272-0.009l-8.5,4.199
			c0,0,22.503,1.063,21.604-0.143c-0.861-1.266-6.665-3.855-6.665-3.855l-0.474-0.019l24.986-11.337l1.378,0.156
			c30.754-9.436,39.194-14.933,40.611-18.352c10.181,0.587,26.487,1.215,33.798-2.323c4.45-2.167,3.157-6.253,0.089-10.555
			c2.001,0.497,3.994,1.056,5.973,1.717c-3.059-4.853,9.725-9.72,14.435-12.792c4.401-2.889,5.965-6.092,4.303-11.157
			C346.821,669.854,342.217,663.158,336.22,661.327z M275.805,680.86l-11.391,17.287c-1.76-0.147-3.565-0.06-5.396,0.226
			c-3.149-2.546-10.482-10.023-2.574-14.913c3.56-2.197,11.228-2.902,19.559-2.767L275.805,680.86z M315.496,704.209
			c-5.403,2.76-18.623,2.191-26.829,1.662c-0.463-0.428-0.988-0.739-1.363-0.919c0.011-0.023,0.021-0.044,0.037-0.067l2.092,0.617
			l24.542-8.891l0.957-0.423C317.428,699.632,318.431,702.708,315.496,704.209z"/>
	</g>
	<g>
		<g>
			<path fill="#321A11" d="M541.101,775.8c-5.608-5.609-15.89-11.457-21.644-8.401c-13.325,0.233-21.858,15.78-23.764,27.814
				c-1.223,7.729-1.154,15.576-1.154,23.533c0,6.352,1.969,15.921-2.382,21.147c13.631,1.875,23.758,9.042,38.205,8.531
				c11.138-0.395,18.521-7.382,28.818-9.066c-8.416-7.45-6.503-29.115-7.414-39.587C550.921,790.021,548.027,782.732,541.101,775.8z
				"/>
			<path fill="#8F6243" d="M523.515,774.037c-11.585,0-20.975,12.39-20.975,27.656c0,15.276,9.39,27.656,20.975,27.656
				c11.582,0,20.976-12.38,20.976-27.656C544.491,786.427,535.097,774.037,523.515,774.037z"/>
			<path fill="#8F6243" d="M539.297,876.971c8.436-25.303,3.757-50.455-15.353-50.65c-20.221-0.207-24.864,27.944-10.593,50.65
				c5.89,9.366-8.002,22.053-8.002,22.053h41.714C547.064,899.023,535.254,889.109,539.297,876.971z"/>
			<polygon fill="#8F6243" points="518.973,1008.877 525.894,1008.877 523.298,918.055 529.785,918.055 532.814,1009.307 
				538.433,1010.17 547.064,899.023 505.35,899.023 			"/>
			<g>
				<path fill="#8F6243" d="M524.293,833.107l-3.717-8.287c-4.121,1.847-40.26,18.667-40.74,40.371
					c-0.493,22.147,26.524,35.229,27.675,35.772l3.902-8.199c-0.231-0.113-22.856-11.115-22.5-27.37
					C489.217,851.811,514.555,837.482,524.293,833.107z"/>
			</g>
			<g>
				<path fill="#8F6243" d="M526.888,824.82l-3.72,8.287c9.739,4.375,35.078,18.703,35.377,32.287
					c0.363,16.255-22.264,27.257-22.494,27.37l3.897,8.199c1.152-0.543,28.172-13.625,27.676-35.772
					C567.145,843.487,531.005,826.667,526.888,824.82z"/>
			</g>
			<path fill="#321A11" d="M518.973,1008.877c0,0-10.813,8.646-14.27,13.405c-3.463,4.756,22.053,0.863,22.053,0.863l-0.863-14.269
				H518.973z"/>
			<path fill="#321A11" d="M539.05,1008.44h-6.538l-0.838,14.269c0,0,24.553,3.893,21.203-0.863
				C549.522,1017.09,539.05,1008.44,539.05,1008.44z"/>
			<path fill="#D9C9BD" d="M538.857,887.994h-25.733c-17.521,8.433-1.64,79.142-1.64,79.142h31.755
				C561.855,890.59,538.857,887.994,538.857,887.994z"/>
			<polygon fill="#D9C9BD" points="500.375,848.425 513.124,887.994 541.895,887.994 547.082,849.72 547.733,836.75 499.08,836.75 
							"/>
			<path fill="#321A11" d="M525.029,769.931c-6.957-1.485-15.348,2.66-18.022,9.728c-2.576,6.82-12.468,24.006,10.323,10.487
				c9.927,9.23,23.804,14.86,26.007,29.039c5.736-7.984,4.631-24.774-0.006-33.215C539.468,778.923,533.074,771.649,525.029,769.931
				z"/>
			<g>
				<path fill="#D9C9BD" d="M501.382,835.741c-10.473,7.286-21.284,17.641-21.545,29.45c-0.068,2.946,0.368,5.727,1.151,8.342
					c2.749-1.193,5.702-1.991,8.782-2.307c-0.586-1.854-0.898-3.805-0.855-5.832c0.191-8.5,10.182-17.287,20.02-23.754
					c-2.465-1.359-4.748-3.06-6.762-5.067C501.902,836.298,501.642,836.02,501.382,835.741z"/>
			</g>
			<g>
				<path fill="#D9C9BD" d="M546.144,835.782c-0.248,0.267-0.492,0.531-0.748,0.791c-2.031,2.023-4.333,3.734-6.817,5.102
					c9.824,6.459,19.776,15.233,19.966,23.72c0.049,2.185-0.331,4.28-1.006,6.262c2.794,1.388,5.379,3.2,7.639,5.393
					c1.592-3.596,2.545-7.551,2.448-11.857C567.361,853.409,556.593,843.073,546.144,835.782z"/>
			</g>
		</g>
		<linearGradient id="SVGID_7_" gradientUnits="userSpaceOnUse" x1="647.0957" y1="960.0703" x2="503.0828" y2="1019.1026">
			<stop  offset="0" style="stop-color:#000000;stop-opacity:0.1"/>
			<stop  offset="0.9949" style="stop-color:#000000;stop-opacity:0.5"/>
		</linearGradient>
		<path opacity="0.7" fill="url(#SVGID_7_)" d="M660.875,942.659c-10.188-6.337-25.496-4.847-33.854-1.342
			c-5.388,2.299-9.834,5.2-14.399,8.105c-3.639,2.316-7.516,6.514-14.092,6.901c0.772,0.412,1.503,0.826,2.213,1.24
			c-10.659-0.24-21.484,0.785-27.225,4.44c-11.446,7.302-1.526,16.822,2.184,19.614l-1.013,0.829
			c-16.33,7.291-31.155,23.015-31.155,23.015l2.188,0.242l-18.072,13.896c0,0-15.496,2.625-21.616,4.229
			c-6.148,1.657,21.54,0.359,21.54,0.359l6.894-4.378l21.56-12.93l6.342,0.723l-20.881,12.283l-0.268-0.008l-8.505,4.189
			c0,0,22.5,1.071,21.605-0.138c-0.86-1.271-6.667-3.855-6.667-3.855l-0.474-0.016l24.982-11.342l1.385,0.159
			c30.75-9.443,39.191-14.94,40.608-18.357c10.182,0.596,26.487,1.217,33.798-2.324c4.453-2.168,3.16-6.248,0.089-10.55
			c2.003,0.492,3.994,1.049,5.971,1.717c-3.054-4.853,9.728-9.725,14.439-12.791c4.4-2.892,5.965-6.093,4.302-11.154
			C671.481,951.183,666.878,944.487,660.875,942.659z M600.46,962.192l-11.388,17.279c-1.759-0.144-3.566-0.057-5.394,0.226
			c-3.152-2.543-10.483-10.019-2.576-14.909c3.559-2.195,11.225-2.905,19.558-2.765L600.46,962.192z M640.154,985.535
			c-5.406,2.757-18.625,2.197-26.829,1.668c-0.465-0.438-0.991-0.739-1.368-0.927c0.014-0.019,0.029-0.045,0.039-0.06l2.092,0.61
			l24.546-8.893l0.956-0.422C642.083,980.959,643.086,984.039,640.154,985.535z"/>
	</g>
	<g>
		<linearGradient id="SVGID_8_" gradientUnits="userSpaceOnUse" x1="989.918" y1="677.1924" x2="876.3917" y2="758.9313">
			<stop  offset="0" style="stop-color:#000000;stop-opacity:0.1"/>
			<stop  offset="0.9949" style="stop-color:#000000;stop-opacity:0.5"/>
		</linearGradient>
		<path opacity="0.7" fill="url(#SVGID_8_)" d="M1021.696,657.918c-10.185-6.333-25.493-4.846-33.851-1.335
			c-5.389,2.295-9.834,5.194-14.4,8.102c-1.618,1.031-7.197,4.514-13.476,8.105c-10.132-0.102-20.175,1.006-25.628,4.474
			c-11.446,7.302-1.525,16.822,2.186,19.616l-1.013,0.828c-16.33,7.295-31.158,23.016-31.158,23.016l2.187,0.246l-18.07,13.893
			c0,0-15.494,2.619-21.616,4.225c-6.146,1.665,21.539,0.36,21.539,0.36l6.895-4.375l21.56-12.93l6.345,0.72l-20.884,12.284
			l-0.271-0.006l-8.498,4.191c0,0,22.499,1.068,21.604-0.141c-0.861-1.265-6.665-3.856-6.665-3.856l-0.476-0.015l24.984-11.339
			l1.382,0.157c30.752-9.437,39.192-14.936,40.609-18.358c10.181,0.591,26.488,1.219,33.798-2.32
			c4.731-2.298,2.988-6.776-0.484-11.373c8.342-4.37,18.447-8.598,20.984-10.256c4.401-2.887,5.965-6.09,4.303-11.154
			C1032.303,666.441,1027.703,659.746,1021.696,657.918z M949.489,694.707c-1.631-0.104-3.301-0.006-4.989,0.25
			c-3.151-2.542-10.48-10.019-2.576-14.905c1.991-1.231,5.282-2.009,9.253-2.437c-4.938,2.569-9.398,4.563-11.759,4.803
			c5.427,2.354,9.285,4.917,13.488,7.339L949.489,694.707z M1000.975,700.797c-5.403,2.76-18.621,2.194-26.826,1.668
			c-0.02-0.025-0.034-0.04-0.054-0.056l0.132,0.04l9.14-3.422c4.548,0.671,9.071,1.348,13.526,2.521
			c-1.053-1.36,1.313-3.523,5.194-5.951C1003.146,697.837,1003.087,699.72,1000.975,700.797z"/>
		<g>
			<path fill="#321A11" d="M912.591,515.036c-0.847-9.752-3.74-17.043-10.665-23.968c-5.611-5.615-15.892-11.462-21.646-8.41
				c-13.325,0.234-21.858,15.78-23.765,27.815c-1.223,7.728-1.155,15.581-1.155,23.534c0,6.35-0.396,47.042-4.748,52.272
				c13.633,1.874,23.76,9.04,38.205,8.527c11.139-0.392,18.522-7.381,28.819-9.066C909.222,578.292,913.5,525.506,912.591,515.036z"
				/>
			<ellipse fill="#CBA586" cx="884.337" cy="516.955" rx="20.973" ry="27.654"/>
			<path fill="#CBA586" d="M900.122,592.229c8.435-25.302,3.758-50.453-15.354-50.649c-20.221-0.203-24.865,27.943-10.596,50.649
				c5.895,9.37-7.999,22.057-7.999,22.057h41.716C907.889,614.286,896.076,604.368,900.122,592.229z"/>
			<polygon fill="#CBA586" points="879.795,724.136 886.719,724.136 884.122,633.314 890.609,633.314 893.638,724.567 
				899.258,725.432 907.889,614.286 866.173,614.286 			"/>
			<g>
				<path fill="#CBA586" d="M885.115,548.367l-3.717-8.286c-4.117,1.846-40.257,18.666-40.74,40.369
					c-0.492,22.152,26.527,35.229,27.675,35.774l3.899-8.201c-0.227-0.114-22.856-11.114-22.495-27.369
					C850.04,567.074,875.377,552.745,885.115,548.367z"/>
			</g>
			<g>
				<path fill="#CBA586" d="M887.71,540.081l-3.718,8.286c9.737,4.378,35.077,18.708,35.377,32.288
					c0.36,16.255-22.266,27.255-22.496,27.369l3.898,8.201c1.154-0.545,28.171-13.622,27.675-35.774
					C927.965,558.747,891.83,541.927,887.71,540.081z"/>
			</g>
			<path fill="#C85333" d="M879.795,724.136c0,0-10.811,8.646-14.268,13.404c-3.464,4.757,22.053,0.868,22.053,0.868l-0.861-14.271
				H879.795z"/>
			<path fill="#C85333" d="M899.873,723.702h-6.537l-0.839,14.269c0,0,24.552,3.893,21.203-0.865
				C910.348,732.349,899.873,723.702,899.873,723.702z"/>
			<path fill="#71B3C0" d="M899.683,603.257h-25.733c-17.521,8.428-1.644,79.142-1.644,79.142h31.759
				C922.674,605.852,899.683,603.257,899.683,603.257z"/>
			<polygon fill="#71B3C0" points="885.854,566.283 867.688,552.01 859.902,552.01 861.199,563.684 873.949,604.553 
				902.718,604.553 907.907,564.979 908.557,552.01 899.473,552.01 			"/>
			<path fill="#321A11" d="M885.854,485.19c-6.964-1.484-15.354,2.66-18.022,9.728c-1.277,3.384-7.727,12.642-11.122,19.466h51.099
				c-0.508-4.989-1.784-9.751-3.652-13.15C900.29,494.188,893.897,486.908,885.854,485.19z"/>
		</g>
	</g>
	<g>
		<g>
			<path fill="#321A11" d="M384.499,601.743c-5.613-5.609-15.895-11.459-21.644-8.406c-13.327,0.234-21.858,15.779-23.764,27.819
				c-1.225,7.727-1.157,15.579-1.157,23.53c0,6.345,1.971,15.924-2.382,21.149c13.633,1.874,23.758,9.041,38.208,8.526
				c11.137-0.391,18.518-7.375,28.816-9.062c-8.419-7.449-6.505-29.115-7.416-39.589
				C394.317,615.962,391.422,608.673,384.499,601.743z"/>
			<path fill="#CBA586" d="M366.913,599.98c-11.591,0-20.976,12.385-20.976,27.656s9.385,27.653,20.976,27.653
				c11.579,0,20.972-12.382,20.972-27.653S378.492,599.98,366.913,599.98z"/>
			<path fill="#CBA586" d="M382.695,702.908c8.434-25.296,3.754-50.452-15.357-50.648c-20.22-0.203-24.859,27.943-10.591,50.648
				c5.893,9.373-8,22.059-8,22.059h41.716C390.462,724.967,378.649,715.05,382.695,702.908z"/>
			<polygon fill="#CBA586" points="362.368,834.814 369.29,834.814 366.695,743.992 373.183,743.992 376.209,835.245 
				381.831,836.113 390.462,724.967 348.746,724.967 			"/>
			<g>
				<path fill="#CBA586" d="M367.688,659.05l-3.714-8.29c-4.124,1.846-40.26,18.666-40.743,40.368
					c-0.494,22.148,26.525,35.232,27.675,35.773l3.9-8.2c-0.227-0.111-22.856-11.114-22.495-27.367
					C332.613,677.753,357.95,663.42,367.688,659.05z"/>
			</g>
			<g>
				<path fill="#CBA586" d="M370.281,650.761l-3.715,8.29c9.736,4.37,35.072,18.703,35.377,32.285
					c0.363,16.253-22.269,27.256-22.498,27.367l3.9,8.2c1.149-0.542,28.173-13.625,27.675-35.773
					C410.537,669.426,374.403,652.607,370.281,650.761z"/>
			</g>
			<path fill="#321A11" d="M362.368,834.814c0,0-10.81,8.65-14.273,13.407c-3.458,4.757,22.058,0.864,22.058,0.864l-0.863-14.271
				H362.368z"/>
			<path fill="#321A11" d="M382.448,834.378h-6.538l-0.84,14.274c0,0,24.552,3.893,21.198-0.865
				C392.919,843.03,382.448,834.378,382.448,834.378z"/>
			<path fill="#321A11" d="M382.252,713.933h-25.731c-17.521,8.435-1.642,79.146-1.642,79.146h31.755
				C405.247,716.533,382.252,713.933,382.252,713.933z"/>
			<polygon fill="#D9C9BD" points="343.773,674.362 356.521,713.933 385.292,713.933 390.48,675.664 391.129,662.69 342.479,662.69 
							"/>
			<path fill="#321A11" d="M368.424,595.869c-6.96-1.483-15.352,2.662-18.019,9.733c-2.577,6.816-12.471,24.004,10.317,10.487
				c9.928,9.231,23.81,14.859,26.013,29.035c5.731-7.982,4.631-24.77-0.008-33.213C382.861,604.867,376.472,597.586,368.424,595.869
				z"/>
		</g>
		<linearGradient id="SVGID_9_" gradientUnits="userSpaceOnUse" x1="490.4937" y1="786.0107" x2="346.4786" y2="845.0439">
			<stop  offset="0" style="stop-color:#000000;stop-opacity:0.1"/>
			<stop  offset="0.9949" style="stop-color:#000000;stop-opacity:0.5"/>
		</linearGradient>
		<path opacity="0.7" fill="url(#SVGID_9_)" d="M504.272,768.6c-10.192-6.339-25.498-4.847-33.855-1.339
			c-5.39,2.299-9.839,5.197-14.397,8.105c-3.643,2.313-7.516,6.514-14.091,6.901c0.772,0.406,1.499,0.822,2.208,1.24
			c-10.66-0.246-21.481,0.785-27.219,4.435c-11.448,7.302-1.531,16.828,2.177,19.616l-1.006,0.83
			c-16.33,7.293-31.155,23.014-31.155,23.014l2.185,0.249l-18.072,13.896c0,0-15.496,2.618-21.616,4.218
			c-6.149,1.662,21.537,0.363,21.537,0.363l6.896-4.378l21.561-12.927l6.345,0.717l-20.886,12.283l-0.268-0.006l-8.503,4.197
			c0,0,22.502,1.062,21.608-0.148c-0.863-1.264-6.666-3.852-6.666-3.852L390.579,846l24.983-11.342l1.378,0.156
			c30.756-9.434,39.197-14.936,40.611-18.357c10.184,0.597,26.49,1.222,33.798-2.32c4.453-2.163,3.16-6.246,0.092-10.548
			c2.001,0.492,3.994,1.049,5.966,1.717c-3.055-4.853,9.733-9.727,14.441-12.798c4.401-2.886,5.966-6.086,4.305-11.15
			C514.879,777.12,510.274,770.431,504.272,768.6z M443.854,788.133l-11.387,17.28c-1.76-0.145-3.563-0.055-5.396,0.225
			c-3.149-2.544-10.482-10.016-2.574-14.911c3.557-2.197,11.225-2.901,19.561-2.76L443.854,788.133z M483.549,811.479
			c-5.403,2.757-18.625,2.19-26.829,1.664c-0.466-0.434-0.991-0.738-1.366-0.926c0.016-0.019,0.025-0.04,0.04-0.062l2.093,0.615
			l24.544-8.896l0.957-0.425C485.481,806.902,486.484,809.977,483.549,811.479z"/>
	</g>
</g>
</svg>
